<svg xmlns="http://www.w3.org/2000/svg" id="svg2" width="154" height="40" version="1.0" viewbox="0 0 154 40"><defs id="defs4"><clipPath id="clipPath3826" clipPathUnits="userSpaceOnUse"><rect id="rect3828" width="122.11" height="31.355" x="457.13" y="152.41" fill="none"/></clipPath></defs><metadata id="metadata7"/><g id="layer1" transform="translate(-305.6326,-203.04663)"><g id="g3816" fill="#56566b" fill-opacity=".996" fill-rule="evenodd" clip-path="url(#clipPath3826)" transform="matrix(1.2738753,0,0,1.2738753,-277.61353,8.951815)"><path id="path3495" d="m472,130.78c-6.0049,14.537-13.966,27.346-14.143,51.086-0.18291,24.527,20.857,40.406,37.485,40.407,20.133,0.004,37.846-16.999,38.78-31.079,0.84291-12.71-3.6794-31.193-27.022-31.055-11.146,0.0647-22.727,9.7606-22.788,24.186-0.0658,15.566,19.434,17.085,24.352,13.122,1.9101-1.5394,1.8518-4.585,0.16171-4.0356-10.5,3.4191-16.986-3.3195-16.504-10.022,0.65388-9.095,6.0498-14.505,15.722-14.965,13.953-0.66276,17.859,12.907,17.502,18.414-0.43347,6.6961-6.2717,20.469-24.433,22.983-8.5752,1.1872-15.682-1.3812-20.873-6.4142-5.1912-5.034-8.1098-10.239-8.5361-18.775-0.441-8.8316,1.4872-14.013,6.769-25.599,1.8866-4.1394,7.1566-12.486,11.238-20.847l-17.711-7.4046z"/><path id="path3497" d="m564.48,223.72c6.0048-14.536,13.966-27.346,14.143-51.086,0.18285-24.527-20.857-40.406-37.485-40.408-20.133-0.002-37.846,16.999-38.78,31.081-0.84296,12.709,3.6794,31.191,27.022,31.054,11.146-0.0647,22.727-9.7606,22.788-24.186,0.0659-15.566-19.434-17.085-24.352-13.122-1.9102,1.5394-1.8518,4.5855-0.16175,4.0356,10.5-3.4186,16.986,3.319,16.504,10.022-0.65392,9.095-6.0498,14.506-15.722,14.966-13.953,0.66276-17.859-12.907-17.502-18.414,0.43346-6.6961,6.2718-20.468,24.433-22.984,8.5752-1.1867,15.682,1.3817,20.873,6.4147,5.1911,5.0335,8.1096,10.238,8.536,18.776,0.441,8.8312-1.487,14.013-6.7689,25.599-1.8867,4.138-7.1566,12.487-11.238,20.847l17.711,7.4037z"/></g></g><path id="path22354" fill="none" stroke="#000" stroke-linecap="butt" stroke-linejoin="miter" stroke-width="1" d="m5013.5-22202,0-100,43.372-73.913,39.709-16.338-39.709,16.338,4.6421-45.671-4.6421,45.671-43.372,73.913-21.795-46.548,1.3556-44.428-1.3556,44.428-35.842-24.64,35.842,24.64,21.795,46.548,0,100"/></svg>